{"title":"Harry Potter ja surma vägised Osa 1 2010 EESTI SUB","uid":9002165,"size":2245654626,"categoryP":"video","categoryS":"movies","magnet":"?xt=urn:btih:2ae2f5795295dd64126195be30f14219ac132aff&amp;dn=Harry+Potter+ja+surma+v%26auml%3Bgised+Osa+1+2010+EESTI+SUB&amp;tr=udp%3A%2F%2Ftracker.openbittorrent.com%3A80&amp;tr=udp%3A%2F%2Fopen.demonii.com%3A1337&amp;tr=udp%3A%2F%2Ftracker.coppersurfer.tk%3A6969&amp;tr=udp%3A%2F%2Fexodus.desync.com%3A6969","seeders":1,"leechers":0,"uploader":"immri","files":1,"time":1380965193,"description":"Format                                   : AVI\nFormat/Info                              : Audio Video Interleave\nFile size                                : 2.09 GiB\nDuration                                 : 2h 26mn\nOverall bit rate                         : 2 050 Kbps\n\nVideo\nID                                       : 0\nFormat                                   : MPEG-4 Visual\nFormat settings, BVOP                    : 1\nFormat settings, QPel                    : No\nFormat settings, GMC                     : No warppoints\nFormat settings, Matrix                  : Default (H.263)\nMuxing mode                              : Packed bitstream\nCodec ID                                 : DX50\nCodec ID/Hint                            : DivX 5\nDuration                                 : 2h 26mn\nBit rate                                 : 1 848 Kbps\nWidth                                    : 720 pixels\nHeight                                   : 300 pixels\nDisplay aspect ratio                     : 2.40:1\nFrame rate                               : 25.000 fps\nColor space                              : YUV\nChroma subsampling                       : 4:2:0\nBit depth                                : 8 bits\nScan type                                : Progressive\nCompression mode                         : Lossy\nBits/(Pixel*Frame)                       : 0.342\nStream size                              : 1.89 GiB (90%)\nTitle                                    : Video \nWriting library                          : DivX 2682\n\nAudio\nID                                       : 1\nFormat                                   : MPEG Audio\nFormat version                           : Version 1\nFormat profile                           : Layer 3\nMode                                     : Joint stereo\nMode extension                           : MS Stereo\nCodec ID                                 : 55\nCodec ID/Hint                            : MP3\nDuration                                 : 2h 26mn\nBit rate mode                            : Constant\nBit rate                                 : 192 Kbps\nChannel(s)                               : 2 channels\nSampling rate                            : 48.0 KHz\nCompression mode                         : Lossy\nStream size                              : 201 MiB (9%)\nAlignment                                : Split accross interleaves\nInterleave, duration                     : 40 ms (1.00 video frame)\nInterleave, preload duration             : 500 ms\nTitle                                    : Audio - en-US01\n\n","torrent":{"xt":"urn:btih:2ae2f5795295dd64126195be30f14219ac132aff","amp;dn":"Harry+Potter+ja+surma+v%26auml%3Bgised+Osa+1+2010+EESTI+SUB","amp;tr":["udp%3A%2F%2Ftracker.openbittorrent.com%3A80","udp%3A%2F%2Fopen.demonii.com%3A1337","udp%3A%2F%2Ftracker.coppersurfer.tk%3A6969","udp%3A%2F%2Fexodus.desync.com%3A6969"],"infoHash":"2ae2f5795295dd64126195be30f14219ac132aff","infoHashBuffer":{"type":"Buffer","data":[42,226,245,121,82,149,221,100,18,97,149,190,48,241,66,25,172,19,42,255]},"announce":[],"urlList":[]}}